<svg width="656" height="650" viewBox="0 0 656 650" fill="none" xmlns="http://www.w3.org/2000/svg">
<path d="M565.667 309.713C565.667 167.408 450.231 52.0464 307.834 52.0464C165.436 52.0464 49.9999 167.408 49.9999 309.713C49.9999 452.018 165.436 567.379 307.834 567.379C450.231 567.379 565.667 452.018 565.667 309.713Z" fill="#34D399" fill-opacity="0.5"/>
<g filter="url(#filter0_d_21_4106)">
<circle cx="570.143" cy="331.11" r="35.8102" fill="#090E16"/>
</g>
<path d="M567.895 307.013C567.79 307.023 567.455 307.056 567.153 307.08C560.193 307.708 553.674 311.462 549.545 317.233C547.246 320.442 545.776 324.082 545.22 327.937C545.024 329.283 545 329.68 545 331.505C545 333.329 545.024 333.727 545.22 335.073C546.552 344.273 553.1 352.002 561.98 354.866C563.57 355.379 565.247 355.728 567.153 355.939C567.895 356.02 571.105 356.02 571.847 355.939C575.138 355.575 577.925 354.761 580.675 353.358C581.096 353.142 581.178 353.085 581.12 353.037C581.082 353.008 579.286 350.599 577.13 347.687L573.212 342.395L568.302 335.13C565.601 331.136 563.379 327.87 563.359 327.87C563.34 327.865 563.321 331.093 563.311 335.034C563.297 341.936 563.292 342.213 563.206 342.376C563.082 342.611 562.986 342.707 562.785 342.812C562.631 342.889 562.497 342.903 561.774 342.903H560.945L560.725 342.764C560.581 342.673 560.476 342.553 560.404 342.414L560.303 342.199L560.313 332.597L560.327 322.99L560.476 322.803C560.553 322.702 560.715 322.573 560.83 322.511C561.027 322.415 561.103 322.405 561.932 322.405C562.909 322.405 563.072 322.444 563.326 322.722C563.398 322.798 566.056 326.802 569.236 331.625C572.417 336.447 576.766 343.032 578.902 346.265L582.782 352.141L582.979 352.012C584.717 350.882 586.557 349.272 588.013 347.596C591.112 344.038 593.109 339.699 593.78 335.073C593.976 333.727 594 333.329 594 331.505C594 329.68 593.976 329.283 593.78 327.937C592.448 318.737 585.9 311.007 577.02 308.143C575.454 307.636 573.787 307.286 571.919 307.075C571.459 307.028 568.293 306.975 567.895 307.013ZM577.925 321.831C578.155 321.946 578.342 322.166 578.409 322.396C578.447 322.52 578.457 325.183 578.447 331.184L578.433 339.795L576.915 337.467L575.391 335.14V328.88C575.391 324.834 575.411 322.559 575.439 322.449C575.516 322.18 575.684 321.97 575.914 321.845C576.11 321.745 576.182 321.735 576.934 321.735C577.643 321.735 577.767 321.745 577.925 321.831Z" fill="#34D399" fill-opacity="0.5"/>
<g filter="url(#filter1_d_21_4106)">
<circle cx="85.8102" cy="468.98" r="35.8102" fill="#090E16"/>
</g>
<g clip-path="url(#clip0_21_4106)">
<path fill-rule="evenodd" clip-rule="evenodd" d="M102.012 451H71.7976C70.2525 451 68.9999 452.253 68.9999 453.798L68.9999 484.013C68.9999 485.558 70.2525 486.81 71.7976 486.81H102.012C103.558 486.81 104.81 485.558 104.81 484.013V453.798C104.81 452.253 103.558 451 102.012 451ZM90.055 482.907V479.043C90.7558 479.631 91.517 480.071 92.3388 480.365C93.1605 480.659 93.9902 480.806 94.8279 480.806C95.3193 480.806 95.7484 480.762 96.1149 480.673C96.4813 480.585 96.7876 480.462 97.0332 480.305C97.2788 480.148 97.4622 479.963 97.5829 479.75C97.7038 479.536 97.7642 479.305 97.7642 479.055C97.7642 478.717 97.6676 478.415 97.4742 478.15C97.2809 477.884 97.0171 477.639 96.6828 477.413C96.3485 477.188 95.9517 476.971 95.4925 476.761C95.0334 476.552 94.5379 476.339 94.0062 476.121C92.6529 475.558 91.644 474.87 90.9794 474.057C90.3147 473.244 89.9825 472.262 89.9825 471.111C89.9825 470.209 90.1638 469.435 90.5262 468.787C90.8888 468.139 91.3822 467.606 92.0065 467.187C92.6308 466.768 93.3538 466.461 94.1755 466.263C94.9972 466.066 95.8671 465.968 96.7855 465.968C97.6877 465.968 98.4873 466.022 99.184 466.131C99.8808 466.239 100.523 466.406 101.111 466.632V470.242C100.821 470.04 100.505 469.863 100.163 469.71C99.8204 469.557 99.468 469.431 99.1056 469.33C98.743 469.229 98.3825 469.155 98.024 469.107C97.6656 469.058 97.3253 469.034 97.003 469.034C96.56 469.034 96.1571 469.076 95.7947 469.161C95.4321 469.246 95.126 469.364 94.8763 469.517C94.6266 469.67 94.4332 469.853 94.2962 470.067C94.1593 470.28 94.0909 470.519 94.0909 470.785C94.0909 471.075 94.1674 471.334 94.3204 471.564C94.4735 471.793 94.691 472.01 94.973 472.216C95.2548 472.421 95.5973 472.622 96 472.819C96.4029 473.017 96.8579 473.22 97.3654 473.429C98.0583 473.719 98.6806 474.027 99.2324 474.353C99.7841 474.679 100.258 475.047 100.652 475.457C101.047 475.868 101.349 476.337 101.558 476.864C101.768 477.391 101.873 478.005 101.873 478.705C101.873 479.671 101.689 480.482 101.323 481.138C100.956 481.794 100.459 482.325 99.8304 482.732C99.2022 483.138 98.4711 483.43 97.6373 483.607C96.8036 483.784 95.9235 483.873 94.9972 483.873C94.0465 483.873 93.1423 483.792 92.2844 483.631C91.4265 483.47 90.6833 483.229 90.055 482.907ZM88.5837 469.429H83.6153V483.593H79.6793V469.429H74.7352V466.247H88.5837V469.429Z" fill="#34D399" fill-opacity="0.5"/>
</g>
<g filter="url(#filter2_d_21_4106)">
<circle cx="85.8102" cy="239.794" r="35.8102" fill="#090E16"/>
</g>
<path d="M99.0927 233.607C98.6752 233.463 98.2425 233.327 97.7971 233.198C97.8703 232.9 97.9375 232.605 97.9972 232.315C98.978 227.554 98.3368 223.718 96.147 222.456C94.0473 221.245 90.6134 222.507 87.1453 225.526C86.8118 225.816 86.4774 226.123 86.1431 226.445C85.9204 226.232 85.698 226.026 85.4762 225.829C81.8415 222.602 78.1983 221.242 76.0107 222.508C73.913 223.723 73.2918 227.328 74.1747 231.84C74.2599 232.276 74.3596 232.721 74.4723 233.174C73.9567 233.32 73.4589 233.476 72.9826 233.642C68.7214 235.128 65.9999 237.456 65.9999 239.871C65.9999 242.366 68.9214 244.868 73.3598 246.385C73.7101 246.504 74.0735 246.617 74.4481 246.725C74.3265 247.214 74.2207 247.694 74.132 248.162C73.2902 252.595 73.9476 256.116 76.0397 257.322C78.2006 258.569 81.8273 257.288 85.3588 254.201C85.6379 253.957 85.9181 253.698 86.1987 253.427C86.5624 253.777 86.9256 254.108 87.2868 254.419C90.7074 257.363 94.0859 258.552 96.1761 257.342C98.3349 256.092 99.0365 252.31 98.1256 247.709C98.0561 247.357 97.9751 246.998 97.8842 246.633C98.1389 246.558 98.3889 246.48 98.6327 246.399C103.247 244.87 106.249 242.399 106.249 239.871C106.249 237.447 103.44 235.103 99.0927 233.607ZM98.092 244.767C97.8719 244.84 97.6461 244.91 97.4159 244.979C96.9066 243.366 96.2191 241.651 95.3778 239.88C96.1806 238.15 96.8415 236.457 97.3366 234.855C97.7484 234.974 98.148 235.1 98.5331 235.233C102.258 236.515 104.53 238.41 104.53 239.871C104.53 241.427 102.076 243.447 98.092 244.767ZM96.4389 248.043C96.8416 250.077 96.8992 251.917 96.6324 253.355C96.3927 254.647 95.9106 255.508 95.3145 255.853C94.0461 256.588 91.3335 255.633 88.4081 253.116C88.0728 252.827 87.735 252.519 87.3961 252.193C88.5302 250.953 89.6637 249.511 90.7699 247.909C92.7157 247.737 94.554 247.454 96.221 247.069C96.3031 247.4 96.376 247.725 96.4389 248.043ZM79.7217 255.727C78.4825 256.164 77.4954 256.177 76.8988 255.833C75.6292 255.101 75.1014 252.274 75.8214 248.482C75.9038 248.048 76.002 247.602 76.1151 247.146C77.7639 247.511 79.5887 247.773 81.5391 247.931C82.6528 249.498 83.819 250.939 84.9942 252.2C84.7375 252.448 84.4817 252.684 84.2274 252.906C82.6658 254.271 81.1009 255.24 79.7217 255.727ZM73.9159 244.758C71.9533 244.087 70.3325 243.215 69.2216 242.264C68.2233 241.409 67.7193 240.56 67.7193 239.871C67.7193 238.406 69.9043 236.536 73.5486 235.266C73.9908 235.111 74.4536 234.966 74.934 234.83C75.4377 236.468 76.0983 238.181 76.8957 239.913C76.088 241.671 75.418 243.411 74.9094 245.069C74.5669 244.97 74.2351 244.867 73.9159 244.758ZM75.8621 231.51C75.1057 227.644 75.608 224.728 76.8722 223.996C78.2187 223.217 81.1962 224.328 84.3345 227.115C84.5351 227.293 84.7365 227.479 84.9384 227.672C83.769 228.928 82.6135 230.358 81.5097 231.915C79.6167 232.091 77.8047 232.373 76.1388 232.75C76.034 232.329 75.9412 231.915 75.8621 231.51ZM93.2237 235.797C92.8254 235.109 92.4166 234.438 91.9997 233.784C93.2839 233.947 94.5143 234.162 95.6698 234.426C95.3229 235.538 94.8905 236.7 94.3816 237.892C94.0165 237.198 93.6303 236.5 93.2237 235.797ZM86.1437 228.901C86.9367 229.76 87.731 230.72 88.5122 231.76C87.725 231.723 86.928 231.704 86.1245 231.704C85.3285 231.704 84.5374 231.723 83.7551 231.759C84.5371 230.728 85.3382 229.77 86.1437 228.901ZM79.0183 235.809C78.6205 236.499 78.2415 237.194 77.8821 237.89C77.3814 236.703 76.953 235.535 76.6031 234.408C77.7515 234.151 78.9761 233.94 80.2521 233.781C79.8294 234.441 79.4172 235.117 79.0183 235.809V235.809ZM80.2889 246.084C78.9705 245.937 77.7275 245.737 76.5794 245.488C76.9349 244.34 77.3727 243.147 77.884 241.934C78.2443 242.63 78.6248 243.325 79.0251 244.017H79.0252C79.4329 244.721 79.8553 245.411 80.2889 246.084ZM86.1912 250.963C85.3763 250.083 84.5634 249.111 83.7696 248.064C84.5402 248.095 85.3259 248.11 86.1245 248.11C86.9448 248.11 87.7558 248.092 88.5541 248.056C87.7703 249.121 86.9789 250.095 86.1912 250.963ZM94.398 241.872C94.9359 243.099 95.3894 244.285 95.7495 245.413C94.5825 245.679 93.3226 245.894 91.995 246.053C92.4128 245.391 92.8253 244.708 93.2306 244.005C93.6406 243.294 94.0299 242.582 94.398 241.872ZM91.7412 243.146C91.112 244.237 90.4661 245.278 89.8103 246.261C88.616 246.347 87.3821 246.391 86.1245 246.391C84.8719 246.391 83.6536 246.352 82.4804 246.276C81.7982 245.28 81.1382 244.235 80.513 243.155H80.5132C79.8897 242.078 79.3158 240.992 78.7958 239.912C79.3157 238.83 79.888 237.743 80.508 236.668L80.5078 236.668C81.1294 235.59 81.7836 234.551 82.4594 233.561C83.6564 233.471 84.8839 233.423 86.1244 233.423H86.1245C87.3705 233.423 88.5996 233.471 89.7962 233.562C90.4618 234.545 91.1115 235.581 91.7355 236.659C92.3666 237.749 92.9464 238.829 93.4706 239.888C92.9479 240.965 92.3695 242.056 91.7412 243.146ZM95.2881 223.945C96.636 224.723 97.1601 227.857 96.3133 231.968C96.2593 232.23 96.1984 232.497 96.1324 232.768C94.4625 232.383 92.6493 232.096 90.7508 231.918C89.6448 230.343 88.4988 228.911 87.3484 227.672C87.6577 227.374 87.9665 227.09 88.2741 226.823C91.2456 224.237 94.0228 223.216 95.2881 223.945ZM86.1245 236.277C88.1094 236.277 89.7186 237.886 89.7186 239.871C89.7186 241.856 88.1094 243.465 86.1245 243.465C84.1395 243.465 82.5304 241.856 82.5304 239.871C82.5304 237.886 84.1395 236.277 86.1245 236.277Z" fill="#34D399" fill-opacity="0.5"/>
<g filter="url(#filter3_f_21_4106)">
<circle cx="309.624" cy="305.148" r="255.148" fill="#34D399" fill-opacity="0.4"/>
</g>
<g filter="url(#filter4_i_21_4106)">
<path fill-rule="evenodd" clip-rule="evenodd" d="M262.635 404.465C299.391 424.056 340.608 421.88 372.901 404.463V447.383L373.266 447.373V472.573H262.635V404.465Z" fill="#BB7D52"/>
<path fill-rule="evenodd" clip-rule="evenodd" d="M262.635 440.226C299.39 459.819 340.607 457.642 372.901 440.226V467.595L397.734 466.977L398.042 466.988C398.042 532.959 240.326 542.834 240.326 466.889L240.942 466.861L262.635 466.972V440.226V440.226Z" fill="#D08B5B"/>
<path fill-rule="evenodd" clip-rule="evenodd" d="M198.067 169.098C285.781 113.249 397.996 133.109 435.909 169.937C446.87 196.314 447.645 221.755 444.42 249.065C451.825 243.751 460.631 244.967 467.569 249.916C470.38 272.577 477.909 317.405 444.169 319.35C432.553 463.956 219.72 481.955 190.95 319.823C157.51 318.669 166.527 273.364 168.616 251.608C176.639 245.504 185.8 248.576 191.487 251.307L198.067 169.098V169.098Z" fill="#D08B5B"/>
<path fill-rule="evenodd" clip-rule="evenodd" d="M185.039 230.339C185.499 231.604 184.002 232.87 179.511 235.172C170.215 239.815 169.4 240.78 169.376 248.053V248.405C169.376 258.185 170.874 260.715 177.322 261.637C183.887 262.558 188.034 264.053 189.186 265.894C189.645 266.7 190.107 270.382 190.107 274.179C190.107 282.349 192.64 293.856 195.75 299.839C204.502 316.869 227.304 325.5 254.943 322.278C268.533 320.551 276.479 317.905 285.116 312.151C298.015 303.522 304.003 292.475 304.924 275.1C305.616 264.513 305.616 264.513 309.071 263.362C313.562 261.752 324.733 261.752 329.34 263.362C332.909 264.628 332.909 264.628 332.909 272.799C332.909 282.234 335.328 293.511 338.552 299.84C347.305 316.869 370.107 325.5 397.631 322.278C411.336 320.552 419.282 317.905 427.92 312.153C440.818 303.523 446.807 292.131 447.958 274.295C448.764 262.558 448.189 263.133 460.857 261.522C467.305 260.717 468.803 258.185 468.803 248.289C468.803 240.464 467.536 238.97 456.826 234.367L450.376 231.604L440.357 228.499L432.987 226.888C428.956 226.082 423.774 225.391 421.585 225.276C419.282 225.276 413.525 223.204 407.766 220.329C398.207 215.61 397.747 215.495 386.461 215.495C373.563 215.495 364.464 218.142 357.093 223.896C354.905 225.621 350.299 227.807 347.074 228.613C343.734 229.419 337.516 231.605 333.255 233.446C322.084 238.164 316.326 237.934 302.046 232.18C295.827 229.65 289.953 227.577 289.148 227.577C288.34 227.577 285.692 225.967 283.274 224.011C275.673 218.027 267.151 215.495 254.022 215.495C242.851 215.495 242.161 215.725 232.257 220.444C225.577 223.666 220.394 225.276 217.285 225.276C214.75 225.391 209.223 226.082 205.077 227.003L185.039 230.339V230.339ZM277.17 245.183C290.988 249.67 295.249 255.768 295.365 271.187C295.48 279.358 295.02 282.005 292.832 286.491C285.232 302.025 263.58 310.772 237.898 308.815C218.206 307.204 208.071 301.681 202.659 289.484C199.204 281.544 198.743 262.558 201.967 256.689C204.962 251.165 210.721 247.369 220.163 244.837C227.534 242.881 231.565 242.651 249.991 242.881C265.883 243.226 272.794 243.802 277.17 245.183V245.183ZM419.972 245.183C433.793 249.67 438.053 255.768 438.169 271.187C438.284 279.358 437.823 282.005 435.635 286.491C428.034 302.025 406.383 310.772 380.701 308.815C361.009 307.204 350.874 301.681 345.461 289.484C342.006 281.544 341.546 262.558 344.77 256.689C347.765 251.165 353.523 247.369 362.966 244.837C370.337 242.881 374.367 242.651 392.793 242.881C408.686 243.226 415.596 243.802 419.972 245.183V245.183Z" fill="#A66F49"/>
<path fill-rule="evenodd" clip-rule="evenodd" d="M288.225 56.6225L280.97 61.3406L277.284 57.7732C271.526 52.1353 268.762 53.1709 264.386 62.4914C261.737 68.2445 258.398 68.9354 252.64 65.1377C250.336 63.527 247.457 62.146 246.306 62.146C243.772 62.146 241.353 66.0581 240.317 71.2362C239.511 75.4938 236.747 79.406 234.444 79.406C233.638 79.406 230.643 78.3704 227.765 77.1045C223.388 75.1484 222.006 75.0332 219.588 76.0689C216.824 77.3347 216.593 78.0249 216.593 85.6197C216.593 91.1431 215.787 95.4007 214.29 98.6227C212.102 103.455 211.987 103.57 206.574 103.57C197.591 103.57 193.33 108.058 197.706 113.006C200.01 115.422 198.512 117.954 194.021 118.99C185.729 121.061 183.311 126.354 187.802 131.992C190.912 136.019 190.797 136.595 185.844 138.896C180.662 141.428 179.857 144.305 183.196 147.872C185.729 150.634 185.729 150.748 184.347 165.938C182.966 180.666 183.426 221.746 185.039 226.003C185.499 227.269 184.002 228.535 179.511 230.836C170.067 235.554 169.376 236.474 169.376 244.069C169.376 253.85 170.874 256.381 177.323 257.302C183.887 258.222 188.033 259.718 189.185 261.559C189.645 262.365 190.106 266.047 190.106 269.844C190.106 278.014 192.64 289.521 195.749 295.504C204.502 312.535 227.304 321.164 254.944 317.943C268.533 316.217 276.479 313.57 285.116 307.817C298.015 299.187 304.003 288.14 304.925 270.765C305.616 260.178 305.616 260.178 309.071 259.028C313.562 257.417 324.733 257.417 329.339 259.028C332.91 260.294 332.91 260.294 332.91 268.464C332.91 277.9 335.328 289.176 338.553 295.505C347.305 312.535 370.107 321.165 397.631 317.944C411.336 316.217 419.282 313.571 427.92 307.818C440.818 299.188 446.807 287.796 447.958 269.96C448.764 258.223 448.189 258.799 460.857 257.187C467.306 256.382 468.803 253.85 468.803 243.955C468.803 236.13 467.536 234.634 456.826 230.032L450.377 227.27V215.763C450.261 196.086 447.497 182.163 442.66 177.675C441.048 176.18 437.478 173.878 434.599 172.497C430.108 170.311 429.187 170.196 427.805 171.692C426.423 173.073 426.768 174.339 430.223 181.243C434.484 189.758 438.284 204.141 439.551 216.569L440.357 224.163L432.987 222.552C428.956 221.747 423.774 221.057 421.585 220.942C419.282 220.942 413.524 218.87 407.766 215.994C398.207 211.276 397.747 211.16 386.461 211.16C373.562 211.16 364.464 213.807 357.094 219.56C354.905 221.287 350.299 223.473 347.075 224.279C343.735 225.084 337.516 227.27 333.255 229.111C322.084 233.829 316.326 233.599 302.045 227.845C295.827 225.314 289.953 223.243 289.147 223.243C288.341 223.243 285.692 221.632 283.274 219.676C275.673 213.692 267.151 211.16 254.022 211.16C242.851 211.16 242.16 211.391 232.256 216.108C225.576 219.33 220.394 220.942 217.285 220.942C214.751 221.057 209.223 221.747 205.078 222.667C193.331 225.199 194.252 226.695 195.173 207.363C195.864 190.794 198.052 176.756 200.586 171.922C203.465 166.514 226.267 154.892 248.84 147.298C276.825 137.977 308.264 134.41 343.735 136.827C374.138 138.783 382.2 141.314 415.828 159.38C427.574 165.709 438.515 170.772 441.048 171.117C445.195 171.692 445.539 171.462 446.806 168.009C449.571 160.07 447.382 140.048 442.776 130.958C439.321 124.284 439.091 121.752 441.048 114.848C442.43 110.015 442.43 108.979 440.703 106.448C439.091 104.032 437.939 103.572 433.333 103.572C430.338 103.687 425.732 104.147 423.083 104.607C418.361 105.528 418.246 105.528 418.822 102.536C421.125 91.2596 418.361 88.7278 407.19 91.6044C403.62 92.5248 400.28 93.1005 400.05 92.7551C399.705 92.4103 400.05 88.9581 400.856 85.161C402.237 78.9474 402.123 77.9118 400.511 76.1853C398.783 74.5746 397.747 74.5746 391.067 75.8405C380.357 78.0269 376.326 76.9913 372.41 71.0072C368.38 65.139 364.694 63.0678 360.894 64.5633C358.821 65.3686 356.633 65.0238 352.487 63.1829C348.11 61.3419 345.577 60.8814 341.662 61.4564C337.631 62.1473 335.443 61.6867 331.642 59.7306C327.727 57.7745 325.539 57.4291 320.817 58.0042C315.75 58.5799 313.907 58.1193 308.034 55.2428C304.349 53.4018 299.973 51.9056 298.36 51.7905C296.748 51.7905 292.256 53.9769 288.226 56.6238L288.225 56.6225V56.6225ZM277.169 240.847C290.989 245.335 295.25 251.434 295.365 266.853C295.48 275.022 295.02 277.669 292.832 282.156C285.231 297.691 263.58 306.436 237.898 304.48C218.206 302.869 208.071 297.346 202.659 285.148C199.204 277.209 198.743 258.222 201.967 252.354C204.962 246.831 210.72 243.033 220.163 240.502C227.534 238.546 231.565 238.315 249.991 238.546C265.883 238.891 272.793 239.466 277.169 240.847V240.847ZM419.972 240.847C433.792 245.335 438.053 251.434 438.168 266.853C438.284 275.022 437.823 277.669 435.635 282.156C428.034 297.691 406.383 306.436 380.701 304.48C361.009 302.869 350.874 297.346 345.462 285.148C342.007 277.209 341.546 258.222 344.77 252.354C347.765 246.831 353.523 243.033 362.966 240.502C370.337 238.546 374.368 238.315 392.794 238.546C408.686 238.891 415.596 239.466 419.972 240.847V240.847Z" fill="#220D09"/>
<path fill-rule="evenodd" clip-rule="evenodd" d="M240.087 254.771C233.983 257.647 226.957 264.897 226.957 268.349C226.957 270.995 228.8 270.995 232.37 268.119C241.698 260.754 261.507 260.754 271.641 268.003C273.599 269.269 275.672 270.419 276.363 270.419C278.781 270.419 277.63 266.277 273.945 261.904C269.108 255.921 260.47 252.009 252.293 252.009C248.032 252.009 244.002 252.929 240.087 254.77V254.771V254.771Z" fill="#533824"/>
<path fill-rule="evenodd" clip-rule="evenodd" d="M373.676 254.771C367.573 257.647 360.548 264.897 360.548 268.349C360.548 270.995 362.391 270.995 365.961 268.119C375.289 260.754 395.097 260.754 405.232 268.003C407.189 269.269 409.262 270.419 409.954 270.419C412.372 270.419 411.22 266.277 407.535 261.904C402.698 255.921 394.061 252.009 385.884 252.009C381.623 252.009 377.592 252.929 373.677 254.77L373.676 254.771V254.771Z" fill="#533824"/>
<path fill-rule="evenodd" clip-rule="evenodd" d="M292.256 309.773C293.523 314.721 297.208 318.634 303.657 321.741C308.84 324.272 311.488 324.848 319.089 324.848C326.689 324.848 329.339 324.272 334.521 321.741C340.97 318.634 344.655 314.722 345.922 309.773L346.498 307.242H319.089H291.68L292.256 309.773V309.773Z" fill="#AF754C"/>
<path fill-rule="evenodd" clip-rule="evenodd" d="M185.039 226.003C185.499 227.269 184.002 228.535 179.511 230.836C170.215 235.479 169.4 236.446 169.376 243.718V244.07C169.376 253.85 170.874 256.381 177.322 257.302C183.887 258.222 188.034 259.718 189.186 261.559C189.645 262.365 190.107 266.047 190.107 269.844C190.107 278.014 192.64 289.522 195.75 295.504C204.502 312.535 227.304 321.164 254.943 317.943C268.533 316.216 276.479 313.57 285.116 307.816C298.015 299.187 304.003 288.14 304.924 270.765C305.616 260.178 305.616 260.178 309.071 259.028C313.562 257.418 324.733 257.418 329.34 259.028C332.909 260.293 332.909 260.293 332.909 268.464C332.909 277.899 335.328 289.176 338.552 295.506C347.305 312.535 370.107 321.164 397.631 317.943C411.336 316.217 419.282 313.57 427.92 307.818C440.818 299.188 446.807 287.796 447.958 269.96C448.764 258.222 448.189 258.799 460.857 257.187C467.305 256.382 468.803 253.85 468.803 243.954C468.803 236.13 467.536 234.635 456.826 230.032L450.376 227.269L440.357 224.164L432.987 222.552C428.956 221.747 423.774 221.056 421.585 220.941C419.282 220.941 413.525 218.87 407.766 215.994C398.207 211.276 397.747 211.16 386.461 211.16C373.563 211.16 364.464 213.807 357.093 219.561C354.905 221.286 350.299 223.473 347.074 224.278C343.734 225.084 337.516 227.27 333.255 229.111C322.084 233.829 316.326 233.599 302.046 227.845C295.827 225.315 289.953 223.242 289.148 223.242C288.34 223.242 285.692 221.632 283.274 219.676C275.673 213.692 267.151 211.16 254.022 211.16C242.851 211.16 242.161 211.391 232.257 216.109C225.577 219.331 220.394 220.941 217.285 220.941C214.75 221.056 209.223 221.747 205.077 222.667L185.039 226.003V226.003ZM277.17 240.848C290.988 245.336 295.249 251.433 295.365 266.853C295.48 275.023 295.02 277.67 292.832 282.156C285.232 297.691 263.58 306.437 237.898 304.479C218.206 302.869 208.071 297.346 202.659 285.149C199.204 277.209 198.743 258.222 201.967 252.354C204.962 246.83 210.721 243.034 220.163 240.502C227.534 238.546 231.565 238.316 249.991 238.546C265.883 238.89 272.794 239.467 277.17 240.848V240.848ZM419.972 240.848C433.793 245.336 438.053 251.433 438.169 266.853C438.284 275.023 437.823 277.67 435.635 282.156C428.034 297.691 406.383 306.437 380.701 304.479C361.009 302.869 350.874 297.346 345.461 285.149C342.006 277.209 341.546 258.222 344.77 252.354C347.765 246.83 353.523 243.034 362.966 240.502C370.337 238.546 374.367 238.316 392.793 238.546C408.686 238.89 415.596 239.467 419.972 240.848V240.848Z" fill="#060911"/>
<path fill-rule="evenodd" clip-rule="evenodd" d="M286.958 356.03C288.455 365.581 295.711 375.362 304.694 379.965C311.258 383.417 323.35 384.107 330.26 381.461C340.625 377.434 349.608 366.617 351.22 356.03H286.958V356.03Z" fill="#3E291B"/>
<path d="M359.721 578.002L367.116 571.994C368.83 570.602 371.349 570.861 372.742 572.574C374.136 574.286 373.876 576.802 372.162 578.195L368.583 581.102L394.568 602.978C396.281 604.37 396.541 606.887 395.148 608.599C394.357 609.57 393.205 610.074 392.043 610.074C391.156 610.074 390.263 609.781 389.522 609.179L359.721 584.202C358.787 583.443 358.245 582.305 358.245 581.102C358.245 579.899 358.787 578.76 359.721 578.002V578.002Z" fill="#34D399" fill-opacity="0.5"/>
<path d="M392.56 541.293C394.683 541.31 396.391 543.043 396.374 545.165L396.044 606.263C396.027 608.384 394.291 610.091 392.168 610.074C391.63 610.07 391.12 609.955 390.656 609.752C389.291 609.154 388.341 607.786 388.354 606.201L388.685 545.104C388.702 542.982 390.437 541.276 392.56 541.293V541.293Z" fill="#34D399" fill-opacity="0.5"/>
<path d="M409.437 583.321L412.169 581.102L402.441 573.198C400.727 571.806 400.468 569.29 401.861 567.577C403.254 565.865 405.773 565.606 407.487 566.998L421.03 578.002C421.965 578.76 422.507 579.899 422.507 581.102C422.507 582.305 421.965 583.443 421.03 584.202L414.483 589.522C413.742 590.123 412.849 590.417 411.963 590.417C410.8 590.417 409.648 589.913 408.857 588.942C407.464 587.23 407.724 584.713 409.437 583.321V583.321Z" fill="#C83267"/>
<path fill-rule="evenodd" clip-rule="evenodd" d="M239.624 466.93C205.652 470.236 174.789 482.889 149.107 503.977C127.008 522.046 120.843 536.407 104.663 556.86C137.629 591.033 181.958 619.988 230.298 635.98C262.543 646.58 284.539 650 319.088 650C353.639 650 375.634 646.58 407.881 635.98C456.649 620.396 497.728 594.859 534.759 558.205C509.396 525.495 498.957 504.057 458.091 483.914C440.931 475.365 420.778 469.21 405.346 467.614L398.078 466.959L397.733 466.952L396.939 472.402C393.485 498.392 360.895 517.542 320.241 517.542C279.588 517.542 247.573 498.619 243.426 472.288C242.621 467.045 242.274 466.588 239.626 466.93H239.624V466.93Z" fill="#0F172A"/>
</g>
<defs>
<filter id="filter0_d_21_4106" x="484.333" y="249.3" width="171.62" height="171.62" filterUnits="userSpaceOnUse" color-interpolation-filters="sRGB">
<feFlood flood-opacity="0" result="BackgroundImageFix"/>
<feColorMatrix in="SourceAlpha" type="matrix" values="0 0 0 0 0 0 0 0 0 0 0 0 0 0 0 0 0 0 127 0" result="hardAlpha"/>
<feOffset dy="4"/>
<feGaussianBlur stdDeviation="25"/>
<feComposite in2="hardAlpha" operator="out"/>
<feColorMatrix type="matrix" values="0 0 0 0 0 0 0 0 0 0 0 0 0 0 0 0 0 0 0.5 0"/>
<feBlend mode="normal" in2="BackgroundImageFix" result="effect1_dropShadow_21_4106"/>
<feBlend mode="normal" in="SourceGraphic" in2="effect1_dropShadow_21_4106" result="shape"/>
</filter>
<filter id="filter1_d_21_4106" x="-6.10352e-05" y="387.169" width="171.62" height="171.62" filterUnits="userSpaceOnUse" color-interpolation-filters="sRGB">
<feFlood flood-opacity="0" result="BackgroundImageFix"/>
<feColorMatrix in="SourceAlpha" type="matrix" values="0 0 0 0 0 0 0 0 0 0 0 0 0 0 0 0 0 0 127 0" result="hardAlpha"/>
<feOffset dy="4"/>
<feGaussianBlur stdDeviation="25"/>
<feComposite in2="hardAlpha" operator="out"/>
<feColorMatrix type="matrix" values="0 0 0 0 0 0 0 0 0 0 0 0 0 0 0 0 0 0 0.5 0"/>
<feBlend mode="normal" in2="BackgroundImageFix" result="effect1_dropShadow_21_4106"/>
<feBlend mode="normal" in="SourceGraphic" in2="effect1_dropShadow_21_4106" result="shape"/>
</filter>
<filter id="filter2_d_21_4106" x="-6.10352e-05" y="157.984" width="171.62" height="171.62" filterUnits="userSpaceOnUse" color-interpolation-filters="sRGB">
<feFlood flood-opacity="0" result="BackgroundImageFix"/>
<feColorMatrix in="SourceAlpha" type="matrix" values="0 0 0 0 0 0 0 0 0 0 0 0 0 0 0 0 0 0 127 0" result="hardAlpha"/>
<feOffset dy="4"/>
<feGaussianBlur stdDeviation="25"/>
<feComposite in2="hardAlpha" operator="out"/>
<feColorMatrix type="matrix" values="0 0 0 0 0 0 0 0 0 0 0 0 0 0 0 0 0 0 0.5 0"/>
<feBlend mode="normal" in2="BackgroundImageFix" result="effect1_dropShadow_21_4106"/>
<feBlend mode="normal" in="SourceGraphic" in2="effect1_dropShadow_21_4106" result="shape"/>
</filter>
<filter id="filter3_f_21_4106" x="4.4762" y="0" width="610.296" height="610.296" filterUnits="userSpaceOnUse" color-interpolation-filters="sRGB">
<feFlood flood-opacity="0" result="BackgroundImageFix"/>
<feBlend mode="normal" in="SourceGraphic" in2="BackgroundImageFix" result="shape"/>
<feGaussianBlur stdDeviation="25" result="effect1_foregroundBlur_21_4106"/>
</filter>
<filter id="filter4_i_21_4106" x="104.663" y="51.7905" width="430.095" height="602.209" filterUnits="userSpaceOnUse" color-interpolation-filters="sRGB">
<feFlood flood-opacity="0" result="BackgroundImageFix"/>
<feBlend mode="normal" in="SourceGraphic" in2="BackgroundImageFix" result="shape"/>
<feColorMatrix in="SourceAlpha" type="matrix" values="0 0 0 0 0 0 0 0 0 0 0 0 0 0 0 0 0 0 127 0" result="hardAlpha"/>
<feOffset dy="4"/>
<feGaussianBlur stdDeviation="2"/>
<feComposite in2="hardAlpha" operator="arithmetic" k2="-1" k3="1"/>
<feColorMatrix type="matrix" values="0 0 0 0 0 0 0 0 0 0 0 0 0 0 0 0 0 0 0.25 0"/>
<feBlend mode="normal" in2="shape" result="effect1_innerShadow_21_4106"/>
</filter>
<clipPath id="clip0_21_4106">
<rect width="35.8102" height="35.8102" fill="white" transform="translate(68.9999 451)"/>
</clipPath>
</defs>
</svg>
